<svg width="1082" height="591" viewBox="0 0 1082 591" fill="none" xmlns="http://www.w3.org/2000/svg">
<g id="burger" clip-path="url(#clip0_1:2)">
<g id="floor">
<path id="Vector" d="M741.816 505.526C842.79 504.335 943.761 505.018 1044.73 507.575C1053.41 507.795 1062.43 508.078 1070.1 510.378C1077.77 512.678 1083.67 517.613 1081.57 522.353C1042.16 523.519 1002.7 523.879 963.207 523.434C954.606 527.647 945.163 533.992 950.449 539.674C954.107 543.606 963.136 544.776 971.032 544.785C985.332 544.802 999.691 542.455 1013.78 543.832C1027.87 545.209 1041.93 552.62 1037.8 560.313C1034.67 566.155 1022.78 569.046 1011.95 569.563C1001.13 570.079 990.054 569.005 979.477 570.389C969.425 571.703 960.717 575.12 951.31 577.504C936.47 581.266 920.021 582.428 903.837 583.417C779.565 591.009 654.263 590.949 529.258 590.88C478.652 590.852 427.357 590.775 378.488 583.387C350.632 579.176 323.939 572.637 295.731 569.243C262.037 565.19 227.214 565.74 192.757 565.862C132.268 566.075 71.8288 564.909 11.441 562.365C6.94717 562.175 1.43111 561.534 0.218351 559.095C-1.19698 556.249 4.54701 554.029 9.40228 552.893C36.9143 546.525 64.8886 542.352 93.0614 540.414C107.329 539.411 122.032 538.9 135.155 535.597C148.278 532.295 159.742 525.368 159.619 517.29C159.581 514.825 158.542 512.189 160.598 510.012C163.329 507.122 170.049 506.458 175.846 506.143C240.116 502.65 304.735 501.192 369.296 501.778C392.006 501.984 414.81 502.44 437.359 500.91C455.835 499.657 473.932 497.084 492.141 494.923C516.582 492.023 622.951 477.001 638.468 489.19C650.084 498.315 626.102 500.284 657.256 504.007C684.382 507.25 714.304 505.85 741.816 505.526Z" fill="#F2F2F2"/>
</g>
<g id="bg-1">
<path id="Vector_2" d="M348.718 463.85C348.718 463.85 311.273 537.945 343.141 537.945C375.01 537.945 776.554 539.538 787.708 518.824C795.522 504.311 791.214 452.646 787.933 423.011C787.296 417.251 784.477 411.955 780.055 408.21C775.632 404.465 769.944 402.557 764.158 402.878C677.315 407.671 352.884 425.435 354.295 423.218C357.084 418.836 355.092 420.031 355.092 420.031C355.092 420.031 342.344 460.664 348.718 463.85Z" fill="#3F3D56"/>
<path id="Vector_3" opacity="0.1" d="M788.73 423.011C788.093 417.251 785.274 411.955 780.851 408.21C776.429 404.465 770.74 402.557 764.954 402.878C678.112 407.671 353.681 425.435 355.092 423.218C357.88 418.836 355.889 420.031 355.889 420.031C355.889 420.031 353.043 429.102 350.713 439.008C351.043 438.975 351.29 439.286 350.215 441.179C350.119 441.606 350.025 442.033 349.932 442.461C362.926 443.744 674.535 426.682 759.377 421.999C765.163 421.678 770.852 423.586 775.274 427.331C779.697 431.076 782.516 436.373 783.153 442.132C785.592 464.165 788.598 498.372 786.769 520.438C787.474 520.055 788.071 519.5 788.505 518.824C796.319 504.311 792.011 452.646 788.73 423.011Z" fill="black"/>
</g>
<g id="bg-2">
<path id="Vector_4" d="M393.35 352.809C389.199 351.537 383.945 349.894 384.419 347.215C384.67 345.792 386.575 344.681 387.955 343.488C390.615 341.188 391.332 337.948 388.475 335.726C385.618 333.505 378.736 333.208 376.215 335.559C374.918 336.768 374.996 338.285 374.327 339.651C372.238 343.912 363.788 345.783 356.609 347.438C349.43 349.094 341.398 352.174 342.073 356.582C342.809 361.391 353.884 365.657 349.428 369.758C347.812 371.245 344.413 372.075 343.689 373.776C343.181 374.972 344.203 376.189 345.195 377.283L352.247 385.052C355.053 388.143 357.944 391.507 357.004 394.948C355.142 401.768 340.002 404.378 328.001 403.611C323.607 403.331 318.442 402.946 315.422 404.793C313.095 406.216 313.099 408.433 313.872 410.33C315.863 415.213 322.232 419.442 330.383 421.293C321.248 423.096 317.66 430.693 323.967 434.879C320.358 436.121 316.455 436.233 312.78 435.2C309.661 438.072 311.495 442.013 315.451 444.525C319.408 447.038 325.013 448.451 330.441 449.794L325.362 454.543C329.037 457.414 336.975 456.402 342.328 454.587C347.681 452.773 353.49 450.337 359.487 451.286C365.112 452.176 369.366 455.928 375.094 455.286C379.532 454.788 381.644 451.936 383.027 449.474L388.905 439.008C397.273 440.317 406.071 434.583 402.711 430.011C412.074 431.017 421.291 424.936 418.217 419.781C423.203 423.627 426.714 428.095 428.432 432.78C429.2 434.874 429.667 437.088 431.758 438.862C433.124 439.878 434.707 440.565 436.384 440.868C438.06 441.172 439.783 441.083 441.419 440.61C439.712 443.921 438.329 447.783 441.838 450.593C445.347 453.402 455.472 452.605 455.025 449.163C460.376 451.462 466.372 453.623 473.059 453.795C479.746 453.966 487.065 451.421 487.673 447.61C497.097 450.718 506.956 452.305 516.88 452.311C517.724 449.761 523.619 448.936 528.026 449.56C532.434 450.183 536.522 451.68 541.062 451.683C545.603 451.686 550.485 448.953 548.161 446.723C557.722 448.723 567.536 449.219 577.249 448.191C586.412 447.219 595.095 444.907 604.374 444.408C613.786 443.835 623.209 445.323 631.987 448.769C635.028 450.045 638.809 451.65 642.151 450.65C644.046 450.082 644.968 448.857 646.255 447.88C651.797 443.675 663.13 444.481 671.873 446.135C680.617 447.788 690.787 449.778 698.448 446.856C701.339 445.754 703.469 444.05 706.543 443.125C717.558 439.809 730.742 448.304 742.433 445.86C746.24 445.064 749.329 443.16 753.362 442.925C760.515 442.508 765.242 447.356 772.198 448.399C779.414 449.481 787.237 445.09 785.477 440.945C792.413 441.099 799.329 440.138 805.96 438.098L802.684 432.202C810.848 432.07 816.853 426.218 813.071 422.08C821.257 420.521 827.731 416.325 829.413 411.487C831.096 406.648 827.923 401.356 821.402 398.125C817.553 396.218 812.499 394.877 810.299 392.252C808.715 390.361 808.946 388.161 808.33 386.094C806.981 381.57 801.136 377.576 793.585 376.019C790.306 375.342 786.717 375.085 783.748 374.041C780.778 372.996 778.634 370.733 780.347 368.998C781.254 368.079 783.001 367.538 784.131 366.704C788.711 363.322 780.858 359.041 774.154 357.142L790.163 356.619L793.601 341.032C787.267 346.184 770.836 345.1 766.72 339.259C771.862 340.947 778.76 338.789 781.275 335.719C783.789 332.649 783.171 329.078 782.5 325.71C782.436 324.873 782.157 324.067 781.69 323.371C781.222 322.674 780.582 322.11 779.832 321.735C778.265 320.988 775.768 320.677 775.254 319.548C774.73 318.397 776.757 317.379 777.057 316.202C777.635 313.942 772.44 312.946 768.932 311.853C760.655 309.274 756.648 302.028 747.231 302.263C737.887 302.497 735.275 309.631 735.269 314.978C735.262 320.325 732.1 327.475 722.749 327.377C719.015 327.338 715.759 325.996 712.778 324.71L685.995 313.159C682.457 311.513 678.775 310.193 674.996 309.216C669.594 307.955 663.626 307.806 657.796 307.674L620.33 306.822C618.422 306.673 616.502 306.838 614.648 307.311C612.68 307.969 611.723 309.263 610.538 310.376C605.321 315.275 593.055 317.193 584.203 314.495C581.856 313.78 579.753 312.794 577.266 312.255C569.433 310.557 561.213 313.698 553.073 314.833C539.731 316.693 523.151 313.491 513.532 319.095C510.325 320.964 508.624 323.518 505.652 325.509C502.68 327.501 497.318 328.851 493.57 327.347C494.041 331.001 494.47 334.814 491.996 338.195C489.522 341.575 483.178 344.333 476.944 343.481C473.636 342.606 473.897 339.826 475.462 337.944C477.026 336.062 479.426 334.14 478.646 332.104C477.872 330.085 474.331 328.911 471.683 327.503C469.035 326.096 467.268 323.428 470.081 322.129C468.186 319.693 461.374 319.99 458.377 322.033C455.381 324.076 455.082 326.952 454.755 329.612C454.428 332.271 453.716 335.184 450.244 336.964C444.327 339.997 432.968 338.423 429.044 342.374C427.798 343.629 427.724 345.143 427.011 346.527C423.828 352.706 410.085 354.307 398.851 354.811C398.615 356.097 398.562 357.409 398.695 358.71C402.538 357.047 396.135 353.662 393.35 352.809Z" fill="#61AB43"/>
<path id="Vector_5" opacity="0.1" d="M782.5 345.75C783.171 349.119 783.789 352.689 781.275 355.759C780.901 356.203 780.479 356.602 780.016 356.951C783.399 356.84 786.781 356.729 790.163 356.619C791.309 351.423 792.455 346.227 793.601 341.032C790.977 343.166 786.62 344.227 782.123 344.326C782.284 344.791 782.41 345.267 782.5 345.75V345.75Z" fill="black"/>
<path id="Vector_6" opacity="0.1" d="M785.455 364.11C785.056 362.003 781.581 359.865 777.692 358.337C774.268 359.963 770.374 360.305 766.72 359.3C769.558 363.328 778.254 365.092 785.455 364.11Z" fill="black"/>
<path id="Vector_7" opacity="0.1" d="M790.426 375.468C790.338 375.865 790.251 376.262 790.163 376.659C784.827 376.834 779.49 377.008 774.154 377.183C780.858 379.082 788.711 383.362 784.131 386.745C783.001 387.579 781.254 388.12 780.347 389.038C778.634 390.774 780.778 393.037 783.748 394.081C786.717 395.126 790.306 395.383 793.585 396.059C801.136 397.617 806.981 401.611 808.33 406.135C808.946 408.202 808.715 410.401 810.3 412.292C812.499 414.918 817.553 416.259 821.402 418.166C821.773 418.349 822.129 418.542 822.478 418.738C825.957 416.771 828.458 414.233 829.413 411.487C831.096 406.648 827.923 401.356 821.402 398.125C817.553 396.218 812.499 394.878 810.3 392.252C808.715 390.361 808.946 388.161 808.33 386.094C806.981 381.57 801.136 377.576 793.585 376.019C792.553 375.806 791.49 375.635 790.426 375.468Z" fill="black"/>
<path id="Vector_8" opacity="0.1" d="M321.378 447.246C322.624 444.593 325.808 442.237 330.383 441.334C326.012 440.426 321.893 438.568 318.319 435.892C316.448 435.947 314.58 435.714 312.78 435.2C309.661 438.072 311.495 442.013 315.451 444.526C317.317 445.654 319.306 446.567 321.378 447.246V447.246Z" fill="black"/>
<path id="Vector_9" opacity="0.1" d="M349.618 369.562C351.898 368.708 354.234 368.013 356.609 367.479C363.787 365.823 372.238 363.952 374.327 359.691C374.996 358.325 374.918 356.809 376.215 355.599C378.736 353.248 385.618 353.545 388.475 355.767C391.332 357.988 390.615 361.229 387.955 363.529C386.575 364.722 384.67 365.832 384.419 367.256C383.945 369.934 389.199 371.577 393.35 372.849C395.303 373.478 397.133 374.443 398.755 375.7C398.79 375.416 398.824 375.133 398.852 374.851C410.085 374.347 423.828 372.747 427.011 366.568C427.724 365.183 427.798 363.669 429.044 362.414C432.968 358.464 444.327 360.037 450.244 357.004C453.716 355.225 454.428 352.312 454.755 349.652C455.082 346.993 455.381 344.116 458.378 342.074C461.374 340.031 468.186 339.734 470.081 342.17C467.269 343.469 469.035 346.136 471.683 347.544C474.331 348.951 477.872 350.126 478.646 352.145C479.426 354.18 477.026 356.103 475.462 357.985C473.897 359.867 473.636 362.647 476.945 363.521C483.178 364.374 489.522 361.615 491.996 358.235C494.47 354.855 494.041 351.042 493.57 347.388C497.318 348.891 502.681 347.541 505.652 345.55C508.624 343.559 510.325 341.004 513.532 339.136C523.151 333.532 539.731 336.734 553.074 334.874C561.213 333.739 569.433 330.598 577.266 332.296C579.753 332.835 581.856 333.821 584.203 334.536C593.056 337.234 605.321 335.315 610.538 330.417C611.723 329.304 612.68 328.009 614.648 327.352C616.502 326.878 618.422 326.713 620.33 326.863C632.819 327.147 645.307 327.431 657.796 327.714C663.626 327.847 669.594 327.996 674.996 329.257C678.775 330.234 682.457 331.553 685.995 333.2C694.923 337.05 703.85 340.9 712.778 344.751C715.759 346.036 719.015 347.379 722.749 347.418C732.1 347.515 735.262 340.365 735.269 335.018C735.275 329.672 737.887 322.538 747.231 322.304C756.648 322.068 760.655 329.315 768.932 331.893C772.44 332.986 777.635 333.982 777.057 336.242C776.789 337.291 775.156 338.214 775.173 339.217C777.503 338.668 779.624 337.453 781.275 335.719C783.789 332.649 783.171 329.078 782.5 325.71C782.436 324.873 782.157 324.067 781.69 323.371C781.222 322.674 780.582 322.11 779.832 321.735C778.265 320.988 775.768 320.677 775.254 319.548C774.73 318.397 776.757 317.379 777.057 316.202C777.635 313.942 772.44 312.946 768.932 311.853C760.655 309.274 756.648 302.028 747.231 302.263C737.887 302.497 735.275 309.631 735.269 314.978C735.262 320.325 732.1 327.475 722.749 327.377C719.015 327.338 715.759 325.996 712.778 324.71C703.85 320.86 694.923 317.009 685.995 313.159C682.457 311.513 678.775 310.193 674.996 309.216C669.594 307.955 663.626 307.806 657.796 307.674C645.307 307.39 632.819 307.106 620.33 306.823C618.422 306.673 616.502 306.838 614.648 307.311C612.68 307.969 611.723 309.263 610.538 310.376C605.321 315.275 593.056 317.193 584.203 314.495C581.856 313.78 579.753 312.794 577.266 312.255C569.433 310.557 561.213 313.698 553.074 314.833C539.731 316.693 523.151 313.491 513.532 319.095C510.325 320.964 508.624 323.518 505.652 325.509C502.681 327.501 497.318 328.851 493.57 327.347C494.041 331.001 494.47 334.815 491.996 338.195C489.522 341.575 483.178 344.333 476.945 343.481C473.637 342.607 473.897 339.826 475.462 337.944C477.026 336.062 479.426 334.14 478.646 332.104C477.872 330.085 474.331 328.911 471.683 327.503C469.035 326.096 467.269 323.428 470.081 322.129C468.186 319.693 461.374 319.99 458.378 322.033C455.381 324.076 455.082 326.952 454.755 329.612C454.428 332.271 453.716 335.184 450.244 336.964C444.327 339.997 432.968 338.423 429.044 342.374C427.798 343.629 427.724 345.143 427.011 346.527C423.828 352.706 410.085 354.307 398.852 354.811C398.824 355.092 398.79 355.375 398.755 355.66C397.133 354.402 395.303 353.437 393.35 352.809C389.199 351.537 383.945 349.894 384.419 347.215C384.67 345.792 386.575 344.682 387.955 343.488C390.615 341.188 391.332 337.948 388.475 335.726C385.618 333.505 378.736 333.208 376.215 335.559C374.918 336.768 374.996 338.285 374.327 339.651C372.238 343.912 363.788 345.783 356.609 347.438C349.43 349.094 341.398 352.174 342.073 356.582C342.797 361.315 353.522 365.521 349.618 369.562Z" fill="black"/>
<path id="Vector_10" opacity="0.1" d="M330.383 421.293C328.409 421.657 326.523 422.396 324.827 423.469C325.902 423.516 326.973 423.586 328.001 423.652C340.002 424.418 355.142 421.809 357.004 414.989C357.944 411.548 355.053 408.184 352.247 405.093C351.119 403.85 349.992 402.608 348.864 401.365C342.993 403.36 334.97 404.056 328.001 403.611C323.607 403.331 318.442 402.946 315.422 404.793C313.095 406.216 313.099 408.433 313.872 410.33C315.863 415.213 322.232 419.442 330.383 421.293Z" fill="black"/>
</g>
<g id="bg-3">
<path id="Vector_11" d="M574.788 390.107C640.79 390.107 694.295 354.793 694.295 311.232C694.295 267.671 640.79 232.357 574.788 232.357C508.786 232.357 455.281 267.671 455.281 311.232C455.281 354.793 508.786 390.107 574.788 390.107Z" fill="#EA565C"/>
<path id="Vector_12" opacity="0.2" d="M534.156 305.655C534.156 305.655 479.979 311.232 495.913 288.127C511.848 265.023 531.766 257.056 541.326 263.429C550.887 269.803 554.87 287.331 553.277 287.331C551.683 287.331 528.579 273.787 520.612 284.144C512.644 294.501 534.156 305.655 534.156 305.655Z" fill="white"/>
<path id="Vector_13" opacity="0.2" d="M581.098 307.913C581.098 307.913 625.836 338.973 598.696 346.123C571.556 353.274 551.254 346.344 548.152 335.28C545.05 324.217 553.445 308.323 554.654 309.361C555.863 310.399 564.57 335.726 577.362 333.057C590.154 330.389 581.098 307.913 581.098 307.913Z" fill="white"/>
<path id="Vector_14" opacity="0.2" d="M591.543 288.448C591.543 288.448 595.073 234.1 615.199 253.662C635.325 273.225 639.861 294.192 631.983 302.556C624.105 310.921 606.158 311.927 606.424 310.356C606.689 308.785 623.895 288.261 615.01 278.679C606.126 269.097 591.543 288.448 591.543 288.448Z" fill="white"/>
<path id="Vector_15" d="M430.583 383.733C496.585 383.733 550.09 348.42 550.09 304.858C550.09 261.297 496.585 225.984 430.583 225.984C364.581 225.984 311.076 261.297 311.076 304.858C311.076 348.42 364.581 383.733 430.583 383.733Z" fill="#EA565C"/>
<path id="Vector_16" opacity="0.2" d="M389.95 299.281C389.95 299.281 335.774 304.858 351.708 281.754C367.642 258.649 387.56 250.682 397.121 257.056C406.681 263.429 410.665 280.957 409.072 280.957C407.478 280.957 384.373 267.413 376.406 277.77C368.439 288.127 389.95 299.281 389.95 299.281Z" fill="white"/>
<path id="Vector_17" opacity="0.2" d="M436.893 301.54C436.893 301.54 481.631 332.599 454.491 339.75C427.35 346.9 407.048 339.97 403.946 328.907C400.844 317.843 409.24 301.949 410.449 302.987C411.658 304.025 420.365 329.352 433.157 326.684C445.948 324.015 436.893 301.54 436.893 301.54Z" fill="white"/>
<path id="Vector_18" opacity="0.2" d="M447.337 282.075C447.337 282.075 450.868 227.726 470.994 247.289C491.119 266.851 495.655 287.818 487.777 296.183C479.899 304.547 461.953 305.554 462.218 303.983C462.484 302.411 479.69 281.887 470.805 272.305C461.921 262.723 447.337 282.075 447.337 282.075Z" fill="white"/>
<path id="Vector_19" opacity="0.1" d="M492.775 237.733C518.806 252.201 535.351 273.867 535.351 298.086C535.351 341.648 481.846 376.961 415.844 376.961C393.228 376.961 372.081 372.814 354.05 365.61C374.838 377.165 401.675 384.132 430.981 384.132C496.983 384.132 550.488 348.818 550.488 305.257C550.488 276.622 527.367 251.552 492.775 237.733Z" fill="black"/>
<path id="Vector_20" opacity="0.1" d="M636.981 243.31C663.011 257.778 679.556 279.444 679.556 303.663C679.556 347.225 626.051 382.538 560.049 382.538C537.433 382.538 516.286 378.391 498.255 371.187C519.044 382.742 545.88 389.708 575.187 389.708C641.189 389.708 694.694 354.395 694.694 310.834C694.694 282.199 671.572 257.129 636.981 243.31Z" fill="black"/>
</g>
<g id="bg-4">
<path id="Vector_21" d="M357.955 289.748C357.955 289.748 460.731 179.801 712.493 225.214C911.513 261.113 748.084 322.901 670.875 347.214C648.475 354.265 625.27 358.443 601.817 359.648C514.714 364.133 295.625 368.143 357.955 289.748Z" fill="#714B4F"/>
<path id="Vector_22" opacity="0.1" d="M670.875 322.516C648.475 329.567 625.27 333.745 601.817 334.95C531.255 338.583 374.081 341.902 350.067 301.354C319.745 366.894 519.59 363.086 601.817 358.851C625.27 357.647 648.475 353.469 670.875 346.418C727.468 328.597 830.377 290.642 802.928 257.506C784.446 283.51 714.132 308.895 670.875 322.516Z" fill="black"/>
<path id="Vector_23" opacity="0.1" d="M577.45 225.612L605.335 280.586" stroke="black" stroke-width="2" stroke-miterlimit="10"/>
<path id="Vector_24" opacity="0.1" d="M491.405 245.53L515.306 291.74" stroke="black" stroke-width="2" stroke-miterlimit="10"/>
<path id="Vector_25" opacity="0.1" d="M627.643 225.612L665.089 280.586" stroke="black" stroke-width="2" stroke-miterlimit="10"/>
<path id="Vector_26" opacity="0.1" d="M491.405 296.52L742.37 264.651" stroke="black" stroke-width="2" stroke-miterlimit="10"/>
<path id="Vector_27" opacity="0.1" d="M732.809 235.97L750.337 260.668" stroke="black" stroke-width="2" stroke-miterlimit="10"/>
<path id="Vector_28" opacity="0.1" d="M442.009 264.651L453.163 287.756" stroke="black" stroke-width="2" stroke-miterlimit="10"/>
</g>
<g id="bg-5">
<path id="Vector_29" d="M479.471 189.803C479.471 189.803 708.653 188.766 710.755 186.692C712.858 184.619 761.218 183.52 770.679 196.999C780.141 210.478 783.295 216.699 770.679 218.772C758.064 220.846 342.802 433.397 342.802 433.397C342.802 433.397 319.674 435.471 331.238 412.661C342.802 389.85 479.471 189.803 479.471 189.803Z" fill="#F6C964"/>
</g>
<g id="bg-6">
<path id="Vector_30" d="M575.688 284.608C575.688 293.188 534.311 314.086 483.269 314.086C432.227 314.086 390.85 293.188 390.85 284.608C390.85 276.027 432.227 272.657 483.269 272.657C534.311 272.657 575.688 276.027 575.688 284.608Z" fill="#61AB43"/>
<path id="Vector_31" d="M483.269 299.745C534.311 299.745 575.688 292.79 575.688 284.209C575.688 275.629 534.311 268.673 483.269 268.673C432.227 268.673 390.85 275.629 390.85 284.209C390.85 292.79 432.227 299.745 483.269 299.745Z" fill="#61AB43"/>
<path id="Vector_32" d="M687.228 270.267C687.228 278.847 645.851 299.745 594.809 299.745C543.767 299.745 502.39 278.847 502.39 270.267C502.39 261.686 543.767 258.316 594.809 258.316C645.851 258.316 687.228 261.686 687.228 270.267Z" fill="#61AB43"/>
<path id="Vector_33" d="M594.809 285.404C645.851 285.404 687.228 278.449 687.228 269.868C687.228 261.288 645.851 254.332 594.809 254.332C543.767 254.332 502.39 261.288 502.39 269.868C502.39 278.449 543.767 285.404 594.809 285.404Z" fill="#61AB43"/>
<path id="Vector_34" d="M798.768 255.926C798.768 264.506 757.391 285.404 706.349 285.404C655.308 285.404 613.93 264.506 613.93 255.926C613.93 247.346 655.308 243.975 706.349 243.975C757.391 243.975 798.768 247.346 798.768 255.926Z" fill="#61AB43"/>
<path id="Vector_35" d="M706.349 271.063C757.391 271.063 798.768 264.108 798.768 255.528C798.768 246.947 757.391 239.992 706.349 239.992C655.308 239.992 613.93 246.947 613.93 255.528C613.93 264.108 655.308 271.063 706.349 271.063Z" fill="#61AB43"/>
</g>
<g id="bg-7">
<path id="Vector_36" d="M365.988 260.34C365.988 260.34 327.977 254.152 347.425 223.213C366.872 192.275 373.413 157.593 381.899 149.845C391.387 141.182 587.212 -10.6987 739.769 157.366C755.931 175.383 769.07 195.899 778.674 218.116C780.519 222.316 782.554 226.086 784.543 228.075C790.731 234.263 796.034 251.942 784.543 260.782C773.051 269.621 434.495 304.096 365.988 260.34Z" fill="#3F3D56"/>
<path id="Vector_37" d="M544.106 131.723C541.763 133.352 539.001 134.273 536.15 134.375C531.756 134.375 528.194 133.188 528.194 131.723C528.194 130.259 531.756 129.072 536.15 129.072C539.001 129.174 541.763 130.095 544.106 131.723V131.723Z" fill="#F2F2F2"/>
<path id="Vector_38" d="M480.461 114.928C478.118 116.557 475.356 117.478 472.505 117.58C468.111 117.58 464.549 116.393 464.549 114.928C464.549 113.464 468.111 112.276 472.505 112.276C475.356 112.379 478.118 113.299 480.461 114.928V114.928Z" fill="#F2F2F2"/>
<path id="Vector_39" d="M653.354 139.403C650.632 140.258 647.721 140.312 644.969 139.558C640.776 138.246 637.731 136.05 638.168 134.652C638.606 133.254 642.36 133.184 646.553 134.496C649.244 135.445 651.605 137.149 653.354 139.403Z" fill="#F2F2F2"/>
<path id="Vector_40" d="M535.787 94.3206C533.065 95.1758 530.155 95.2298 527.403 94.4762C523.209 93.1644 520.164 90.9678 520.602 89.57C521.039 88.1722 524.793 88.1025 528.986 89.4144C531.677 90.3634 534.038 92.0665 535.787 94.3206V94.3206Z" fill="#F2F2F2"/>
<path id="Vector_41" d="M663.961 110.232C661.239 111.087 658.329 111.141 655.577 110.387C651.383 109.076 648.339 106.879 648.776 105.481C649.213 104.083 652.967 104.014 657.16 105.326C659.851 106.275 662.212 107.978 663.961 110.232V110.232Z" fill="#F2F2F2"/>
<path id="Vector_42" d="M637.805 107.857C635.463 109.485 632.701 110.406 629.85 110.508C625.456 110.508 621.894 109.321 621.894 107.857C621.894 106.392 625.456 105.205 629.85 105.205C632.701 105.307 635.463 106.228 637.805 107.857V107.857Z" fill="#F2F2F2"/>
<path id="Vector_43" d="M561.785 91.9453C559.442 93.5742 556.681 94.4948 553.829 94.5972C549.435 94.5972 545.874 93.4099 545.874 91.9453C545.874 90.4807 549.435 89.2934 553.829 89.2934C556.681 89.3958 559.442 90.3163 561.785 91.9453V91.9453Z" fill="#F2F2F2"/>
<path id="Vector_44" d="M620.126 91.9453C617.784 93.5742 615.022 94.4948 612.171 94.5972C607.777 94.5972 604.215 93.4099 604.215 91.9453C604.215 90.4807 607.777 89.2934 612.171 89.2934C615.022 89.3958 617.784 90.3163 620.126 91.9453V91.9453Z" fill="#F2F2F2"/>
<path id="Vector_45" d="M598.027 126.42C595.685 128.049 592.923 128.969 590.072 129.072C585.678 129.072 582.116 127.884 582.116 126.42C582.116 124.955 585.678 123.768 590.072 123.768C592.923 123.87 595.685 124.791 598.027 126.42V126.42Z" fill="#F2F2F2"/>
<path id="Vector_46" d="M533.75 120.225C534.413 117.45 535.861 114.924 537.92 112.95C541.199 110.024 544.647 108.539 545.622 109.632C546.597 110.725 544.73 113.982 541.451 116.907C539.256 118.729 536.582 119.881 533.75 120.225Z" fill="#F2F2F2"/>
<path id="Vector_47" d="M493.971 110.501C494.635 107.726 496.083 105.201 498.142 103.226C501.421 100.301 504.869 98.8153 505.844 99.9081C506.819 101.001 504.952 104.258 501.673 107.183C499.477 109.005 496.804 110.157 493.971 110.501V110.501Z" fill="#F2F2F2"/>
<path id="Vector_48" d="M425.023 158.235C425.686 155.46 427.134 152.934 429.193 150.96C432.472 148.035 435.92 146.549 436.895 147.642C437.87 148.735 436.003 151.992 432.724 154.917C430.529 156.739 427.855 157.891 425.023 158.235Z" fill="#F2F2F2"/>
<path id="Vector_49" d="M577.948 105.197C578.611 102.422 580.059 99.8969 582.118 97.9222C585.397 94.997 588.845 93.5116 589.82 94.6044C590.795 95.6972 588.928 98.9545 585.649 101.88C583.454 103.702 580.78 104.853 577.948 105.197Z" fill="#F2F2F2"/>
<path id="Vector_50" d="M562.036 137.02C562.7 134.245 564.148 131.719 566.207 129.745C569.486 126.82 572.934 125.334 573.909 126.427C574.884 127.52 573.017 130.777 569.738 133.702C567.542 135.524 564.869 136.676 562.036 137.02Z" fill="#F2F2F2"/>
</g>
<g id="human">
<path id="Vector_51" d="M855.657 483.422C855.657 483.422 843.554 487.052 837.503 494.314C837.503 494.314 826.61 499.155 819.953 497.945C813.297 496.735 801.194 508.838 810.876 512.468C820.559 516.099 879.863 525.782 881.073 522.756C882.283 519.73 882.283 488.868 882.283 488.868L855.657 483.422Z" fill="#575A89"/>
<path id="Vector_52" d="M950.727 478.225C950.727 478.225 939.422 483.87 934.7 492.058C934.7 492.058 924.794 498.689 918.029 498.633C911.263 498.578 901.406 512.57 911.566 514.494C921.726 516.417 981.812 515.828 982.488 512.64C983.164 509.452 977.892 479.043 977.892 479.043L950.727 478.225Z" fill="#575A89"/>
<path id="Vector_53" d="M875.324 67.9901C890.364 67.9901 902.556 55.7981 902.556 40.7586C902.556 25.7191 890.364 13.5271 875.324 13.5271C860.285 13.5271 848.093 25.7191 848.093 40.7586C848.093 55.7981 860.285 67.9901 875.324 67.9901Z" fill="#FFB9B9"/>
<path id="Vector_54" d="M897.412 45.2972C897.412 45.2972 900.438 65.8721 905.884 68.2927C909.673 70.1579 913.145 72.6085 916.171 75.5544L901.043 82.8161L871.391 81.0007C871.391 81.0007 873.811 67.6875 869.575 61.0309C865.339 54.3743 897.412 45.2972 897.412 45.2972Z" fill="#FFB9B9"/>
<path id="Vector_55" d="M953.69 142.725C953.69 142.725 967.609 178.429 953.69 212.922C939.772 247.415 933.721 252.862 933.721 252.862L929.485 207.476L934.355 203.057C934.355 203.057 937.305 189.288 934.908 181.135C932.51 172.983 936.141 147.567 936.141 147.567L953.69 142.725Z" fill="#FFB9B9"/>
<path id="Vector_56" d="M849.606 220.184C849.606 220.184 832.056 260.123 833.872 279.488C835.687 298.853 849.606 380.547 849.606 380.547C849.606 380.547 847.79 485.842 853.236 485.842C858.683 485.842 884.704 495.524 884.704 488.868C884.704 482.211 890.15 322.453 890.15 322.453C890.15 322.453 921.013 392.65 924.038 398.096C927.064 403.542 946.429 488.868 953.085 488.868C959.742 488.868 980.317 482.816 978.501 478.58C976.686 474.344 956.111 379.942 944.613 355.736C933.115 331.53 935.536 240.154 935.536 240.154L916.171 197.794L849.606 220.184Z" fill="#3F3D56"/>
<path id="Vector_57" d="M867.155 28.3532C867.155 28.3532 850.211 27.1429 849 22.9069C847.79 18.6709 845.37 15.04 846.58 15.04C847.79 15.04 848.395 12.0143 848.395 12.0143C848.395 12.0143 849.606 11.4092 850.211 12.0143C850.816 12.6194 851.421 7.77829 851.421 7.77829C851.421 7.77829 852.026 5.96286 852.631 7.17315C853.236 8.38344 853.236 7.77829 853.842 5.96286C854.447 4.14743 857.472 2.93714 857.472 2.93714C857.472 2.93714 868.97 3.54229 870.786 1.12172C872.601 -1.29885 893.176 0.516558 897.412 3.54228C901.648 6.568 920.407 17.4606 917.382 26.5378C914.356 35.6149 903.463 55.5847 903.463 58.6104C903.463 61.6361 899.227 61.031 898.017 58.0052C896.807 54.9795 887.125 51.3487 887.125 49.5332C887.125 47.7178 881.678 30.7738 878.652 31.9841C875.627 33.1943 871.996 42.8767 870.786 41.0612C869.575 39.2458 867.155 28.3532 867.155 28.3532Z" fill="#3F3D56"/>
<path id="Vector_58" d="M950.665 111.258C950.665 111.258 925.854 74.9493 918.592 73.1338C911.33 71.3184 894.991 66.4772 894.991 66.4772C894.991 66.4772 878.653 68.8978 873.811 71.3184C868.97 73.739 850.816 77.975 850.211 85.2367C849.606 92.4984 855.052 162.09 852.026 168.747C849 175.403 838.713 238.943 843.554 237.733C848.395 236.523 844.765 220.789 865.945 220.184C887.125 219.579 898.622 206.871 906.489 221.999C914.356 237.128 936.746 248.626 936.746 248.626C937.309 243.747 938.117 238.9 939.167 234.102C940.982 225.63 934.326 205.055 934.326 205.055C934.326 205.055 934.931 157.249 937.352 151.803C939.772 146.356 950.665 111.258 950.665 111.258Z" fill="#6C63FF"/>
<path id="Vector_59" d="M941.587 110.048L950.665 111.258C950.665 111.258 950.059 123.361 952.48 126.992C954.901 130.622 959.137 149.382 956.716 149.987C954.295 150.592 932.51 154.223 932.51 154.223L931.3 126.387L941.587 110.048Z" fill="#6C63FF"/>
<path id="Vector_60" d="M843.554 131.833C843.554 131.833 837.503 171.167 834.477 176.008C831.451 180.849 816.323 248.626 816.323 248.626C816.323 248.626 791.445 283.222 803.548 282.616C815.651 282.011 828.426 251.046 828.426 251.046C828.426 251.046 865.944 182.665 865.944 175.403C865.944 168.141 875.022 131.833 875.022 131.833L843.554 131.833Z" fill="#FFB9B9"/>
<path id="Vector_61" d="M861.103 78.5801L850.211 82.8161C850.211 82.8161 836.292 132.438 839.318 136.674C842.344 140.91 878.652 134.859 879.258 133.043C879.863 131.228 872.601 78.5801 861.103 78.5801Z" fill="#6C63FF"/>
</g>
<g id="plant">
<path id="Vector_62" d="M96.5937 406.978C96.5937 465.938 133.582 513.648 179.293 513.648Z" fill="#46455B"/>
<path id="Vector_63" d="M179.293 513.648C179.293 454.025 220.57 405.779 271.581 405.779Z" fill="#6C63FF"/>
<path id="Vector_64" d="M126.557 412.323C126.557 468.329 150.144 513.648 179.293 513.648Z" fill="#6C63FF"/>
<path id="Vector_65" d="M179.293 513.648C179.293 437.464 227.003 375.816 285.963 375.816Z" fill="#46455B"/>
<path id="Vector_66" d="M161.895 514.4C161.895 514.4 173.623 514.039 177.158 511.522C180.692 509.005 195.199 506 196.076 510.036C196.952 514.073 213.701 530.113 200.46 530.219C187.219 530.326 169.694 528.157 166.166 526.008C162.638 523.859 161.895 514.4 161.895 514.4Z" fill="#A8A8A8"/>
<path id="Vector_67" opacity="0.2" d="M200.696 528.814C187.455 528.921 169.93 526.752 166.402 524.603C163.716 522.966 162.645 517.094 162.287 514.385C162.039 514.396 161.895 514.4 161.895 514.4C161.895 514.4 162.638 523.859 166.166 526.008C169.694 528.157 187.219 530.326 200.46 530.219C204.282 530.188 205.602 528.829 205.53 526.815C204.999 528.031 203.541 528.791 200.696 528.814Z" fill="black"/>
</g>
</g>
<defs>
<clipPath id="clip0_1:2">
<rect width="1082" height="590.893" fill="white"/>
</clipPath>
</defs>
</svg>
